<?xml version="1.0" standalone="no"?>
<!DOCTYPE svg PUBLIC "-//W3C//DTD SVG 20010904//EN"
 "http://www.w3.org/TR/2001/REC-SVG-20010904/DTD/svg10.dtd">
<svg version="1.0" xmlns="http://www.w3.org/2000/svg"
 width="342.000000pt" height="90.000000pt" viewBox="0 0 342.000000 90.000000"
 preserveAspectRatio="xMidYMid meet">
<metadata>
Created by potrace 1.16, written by Peter Selinger 2001-2019
</metadata>
<g transform="translate(0.000000,90.000000) scale(0.021375,-0.010000)"
fill="#000000" stroke="none">
<path d="M0 4500 l0 -4500 3385 0 3385 0 12 25 c6 13 15 22 20 19 5 -3 13 8
19 25 10 29 20 36 43 32 5 -1 13 4 17 11 7 11 9 11 9 0 0 -7 4 -10 10 -7 13 8
13 -4 -1 -43 -7 -20 -15 -29 -25 -25 -9 3 -14 -2 -14 -16 l0 -21 4570 0 4570
0 0 4500 0 4500 -8000 0 -8000 0 0 -4500z m12498 2525 c27 -8 59 -23 70 -33
19 -16 20 -23 12 -97 -10 -92 -13 -343 -4 -396 l6 -37 115 -7 c67 -4 119 -3
124 2 21 21 40 158 46 331 l6 182 50 15 c79 24 202 19 294 -10 43 -14 92 -33
109 -44 l31 -19 -19 -108 c-25 -153 -36 -396 -17 -410 8 -6 52 -16 99 -23 94
-14 402 -72 511 -97 93 -21 109 -44 109 -161 0 -111 -25 -246 -139 -763 -137
-615 -136 -609 -122 -838 15 -240 37 -409 116 -876 79 -472 97 -596 98 -711 1
-81 -2 -97 -27 -148 -91 -187 -401 -353 -938 -502 -53 -15 -60 -21 -99 -78
-53 -79 -124 -154 -170 -177 -97 -50 -318 -77 -498 -60 -247 23 -321 63 -439
237 -39 58 -47 64 -100 78 -332 92 -605 203 -762 312 -70 48 -144 127 -173
185 -24 47 -27 65 -27 150 0 119 13 216 95 703 93 553 125 820 125 1034 0 94
-34 271 -154 806 -116 515 -138 693 -96 762 11 18 30 35 42 38 102 23 281 59
425 83 94 16 177 33 184 37 17 11 5 264 -20 410 -21 128 -26 119 82 159 126
48 229 54 339 22 l43 -13 6 -179 c6 -164 27 -316 46 -335 12 -12 212 6 226 20
14 14 17 314 4 447 l-7 81 62 18 c132 37 234 40 336 10z m-7716 -273 c274 -81
438 -294 438 -567 0 -165 -54 -299 -165 -410 -129 -130 -286 -188 -500 -187
-209 1 -362 58 -486 182 -125 125 -176 262 -166 450 6 121 31 202 91 293 89
133 252 230 441 261 69 11 280 -3 347 -22z m1433 4 c213 -57 371 -208 431
-411 24 -81 24 -239 0 -320 -73 -246 -271 -403 -551 -434 -347 -40 -645 133
-731 424 -27 91 -26 259 4 352 65 207 251 360 490 403 71 13 288 4 357 -14z
m-3858 -9 c133 -39 224 -111 257 -205 23 -66 19 -199 -8 -250 l-17 -33 35 -39
c99 -110 122 -276 57 -416 -48 -102 -151 -171 -292 -193 -36 -6 -231 -11 -446
-11 l-383 0 0 578 c0 318 3 582 8 586 4 4 171 6 372 3 288 -3 376 -8 417 -20z
m811 -434 l2 -453 320 0 320 0 0 -130 0 -130 -465 0 -465 0 0 578 c0 318 3
582 7 586 4 3 68 5 142 4 l136 -3 3 -452z m4252 447 c384 -41 590 -239 590
-570 0 -169 -46 -286 -155 -396 -80 -81 -170 -130 -300 -166 -72 -19 -111 -22
-392 -26 l-313 -4 0 579 c0 319 3 583 7 586 10 11 457 8 563 -3z m-5095 -1575
c148 -31 256 -111 291 -217 21 -65 16 -200 -10 -244 l-18 -30 33 -34 c43 -47
86 -141 95 -208 15 -125 -36 -263 -124 -327 -113 -83 -195 -95 -668 -95 l-364
0 0 585 0 585 348 0 c267 0 363 -4 417 -15z m1275 -97 c30 -62 154 -320 277
-573 123 -253 223 -466 223 -473 0 -10 -33 -12 -147 -10 l-148 3 -45 93 -44
92 -301 0 -301 0 -45 -92 -44 -93 -147 -3 c-103 -2 -148 1 -148 9 0 6 29 72
64 147 35 75 85 182 111 237 26 55 94 201 152 325 58 124 130 276 159 338 l53
112 139 0 139 0 53 -112z m1068 3 c114 -59 260 -136 325 -170 l117 -61 0 170
0 171 143 -3 142 -3 3 -550 c2 -302 0 -565 -3 -582 l-6 -33 -139 0 -140 0 -2
261 -3 262 -305 158 c-168 88 -308 159 -312 159 -5 0 -8 -189 -8 -420 l0 -420
-140 0 -140 0 0 585 0 585 130 0 131 0 207 -109z m1264 -151 l3 -260 267 260
266 260 189 0 188 0 -90 -88 c-49 -48 -179 -174 -288 -280 l-199 -192 219
-232 c308 -327 343 -365 343 -372 0 -3 -85 -6 -188 -6 l-189 0 -38 43 c-21 23
-109 115 -195 204 l-158 163 -66 -61 -66 -61 0 -144 0 -145 -142 3 -143 3 -3
583 -2 582 145 0 145 0 2 -260z m-3649 -1300 c53 -5 125 -17 160 -26 64 -16
227 -88 227 -99 0 -4 -29 -55 -65 -114 l-64 -108 -67 33 c-80 39 -159 54 -278
54 -193 0 -322 -66 -382 -194 -19 -40 -24 -68 -24 -131 1 -160 82 -263 250
-316 133 -42 338 -21 477 50 l59 29 46 -76 c25 -42 56 -93 67 -113 l22 -37
-93 -46 c-140 -69 -240 -90 -423 -89 -176 1 -260 19 -392 83 -137 68 -243 191
-289 337 -8 26 -17 89 -21 139 -24 362 243 615 667 632 14 1 69 -3 123 -8z
m1597 -140 l0 -130 -355 0 -355 0 0 -75 0 -75 315 0 315 0 0 -125 0 -125 -315
0 -315 0 0 -120 0 -120 363 -2 362 -3 3 -127 3 -128 -511 0 -510 0 0 580 0
580 500 0 500 0 0 -130z m564 81 c50 -27 150 -79 221 -116 72 -37 171 -89 222
-116 50 -27 94 -49 97 -49 3 0 6 74 6 165 l0 165 145 0 145 0 0 -580 0 -580
-145 0 -145 0 0 258 0 258 -307 160 -308 160 -3 -418 -2 -418 -145 0 -145 0 0
580 0 580 136 0 137 0 91 -49z m2106 -81 l0 -130 -200 0 -200 0 0 -450 0 -450
-145 0 -145 0 0 450 0 450 -205 0 -205 0 0 130 0 130 550 0 550 0 0 -130z
m1180 0 l0 -130 -355 0 -355 0 0 -75 0 -75 315 0 315 0 0 -125 0 -125 -315 0
-315 0 0 -120 0 -120 363 -2 362 -3 3 -127 3 -128 -511 0 -510 0 0 580 0 580
500 0 500 0 0 -130z m983 114 c148 -34 239 -99 295 -212 36 -74 37 -79 37
-186 -1 -91 -5 -121 -24 -168 -25 -65 -96 -149 -157 -188 l-42 -26 122 -180
122 -179 -169 -3 c-96 -1 -174 2 -181 7 -6 5 -49 75 -96 155 l-85 146 -157 0
-158 0 0 -155 0 -155 -145 0 -145 0 0 580 0 580 356 0 c291 0 368 -3 427 -16z
m-7253 -1819 l0 -55 55 0 c37 0 55 4 56 13 0 6 1 30 2 51 1 22 8 41 15 43 9 4
12 -25 12 -121 0 -105 -2 -126 -15 -126 -12 0 -15 13 -15 55 l0 55 -55 0 -55
0 0 -55 c0 -42 -3 -55 -15 -55 -13 0 -15 21 -15 125 0 104 2 125 15 125 12 0
15 -13 15 -55z m4950 14 c0 -37 2 -40 23 -33 61 20 97 -12 97 -86 0 -56 -24
-92 -60 -91 -14 0 -40 1 -57 1 l-33 1 0 125 c0 104 2 124 15 124 11 0 15 -11
15 -41z m-2529 -58 c25 -31 22 -100 -6 -131 -26 -29 -89 -27 -109 2 -22 32
-21 120 2 140 37 33 82 29 113 -11z m585 8 c11 -12 16 -35 16 -69 0 -67 -22
-93 -74 -88 -38 4 -38 3 -38 -34 0 -27 -4 -38 -15 -38 -13 0 -15 20 -15 124
l0 125 30 -1 c17 -1 33 1 36 4 9 10 42 -3 60 -23z m317 3 c10 -9 17 -29 17
-49 l0 -33 -61 0 c-58 0 -60 -1 -53 -22 12 -40 50 -50 79 -22 11 11 20 13 26
7 17 -17 -19 -43 -60 -43 -24 0 -44 7 -55 19 -22 24 -25 113 -6 137 29 34 77
37 113 6z m837 18 c27 0 40 -34 40 -104 l0 -73 -56 -2 c-65 -1 -84 10 -84 50
0 34 32 59 77 59 26 0 33 4 33 20 0 27 -45 38 -69 16 -19 -17 -41 -21 -41 -8
0 22 55 54 78 46 8 -2 17 -4 22 -4z m-3838 -17 c10 -9 18 -30 18 -50 l0 -33
-61 0 c-58 0 -60 -1 -53 -22 12 -40 44 -49 80 -23 27 18 39 7 17 -17 -24 -27
-87 -24 -107 4 -22 30 -21 116 1 140 20 23 80 24 105 1z m322 -5 c9 -12 16
-35 16 -50 0 -28 -1 -28 -60 -28 -64 0 -76 -12 -44 -44 20 -20 48 -20 68 0 23
22 42 7 20 -17 -17 -19 -77 -26 -101 -11 -35 22 -42 107 -12 146 27 35 90 37
113 4z m494 -41 c8 -31 17 -57 21 -57 4 0 14 26 22 57 20 77 41 81 58 11 21
-83 26 -85 45 -14 12 43 23 66 33 66 9 0 12 -7 9 -17 -41 -143 -48 -163 -61
-163 -10 0 -21 22 -31 60 -10 32 -20 57 -24 55 -4 -2 -13 -29 -20 -60 -20 -83
-41 -75 -68 24 -25 90 -27 104 -10 99 7 -3 19 -30 26 -61z m541 49 c7 -8 15
-30 18 -50 l6 -36 -62 0 c-59 0 -62 -1 -59 -22 5 -33 51 -47 78 -23 23 21 39
12 24 -13 -12 -19 -53 -27 -89 -18 -46 12 -60 133 -19 163 24 17 89 17 103 -1z
m314 -4 c9 -10 20 -33 23 -50 l7 -32 -62 0 c-52 0 -61 -3 -61 -18 0 -39 55
-57 80 -27 9 11 16 13 24 5 17 -17 -18 -42 -60 -42 -51 0 -74 28 -74 91 0 64
21 91 69 91 24 0 44 -7 54 -18z m1691 -4 c9 -12 16 -35 16 -50 0 -28 -1 -28
-60 -28 -64 0 -76 -12 -44 -44 20 -20 48 -20 68 0 23 22 42 7 20 -17 -21 -23
-86 -26 -108 -4 -32 33 -33 117 0 149 24 25 90 21 108 -6z m908 5 c27 -24 26
-123 -2 -148 -76 -69 -174 56 -109 139 24 31 81 36 111 9z m647 3 c7 -8 15
-30 18 -50 l6 -36 -62 0 c-59 0 -62 -1 -59 -22 4 -32 51 -47 75 -25 11 9 24
13 31 8 9 -6 8 -11 -5 -23 -37 -33 -103 -23 -121 17 -19 41 -15 102 8 125 24
24 91 27 109 6z m209 -93 c-3 -96 -5 -106 -27 -124 -26 -22 -85 -26 -79 -6 3
6 17 14 33 17 16 3 31 14 36 26 7 20 5 21 -35 17 -37 -5 -46 -2 -60 18 -20 30
-21 108 0 137 13 19 24 22 75 21 l61 -2 -4 -104z"/>
<path d="M12298 6374 c-41 -22 -58 -63 -58 -139 0 -37 -5 -75 -10 -85 -19 -36
-110 -54 -273 -54 -144 -1 -149 0 -168 22 -10 13 -24 43 -29 65 -26 103 -35
121 -67 140 -29 16 -34 17 -67 3 -50 -21 -61 -49 -48 -128 6 -34 8 -75 5 -90
-7 -38 -65 -63 -214 -93 -182 -37 -249 -59 -294 -99 l-40 -34 1 -113 c1 -124
27 -284 94 -597 22 -101 49 -242 61 -314 21 -134 31 -361 15 -351 -5 4 -6 1
-2 -5 4 -6 2 -48 -3 -94 -6 -46 -13 -110 -16 -143 -3 -33 -10 -96 -15 -140 -6
-44 -17 -134 -25 -200 -37 -302 -47 -434 -49 -615 -2 -278 24 -378 112 -434
326 -206 1732 -254 2243 -78 180 63 218 121 241 371 17 195 -1 437 -87 1176
-13 116 -24 255 -25 310 0 55 -1 129 -1 165 -1 92 16 193 73 440 80 346 90
401 91 485 0 56 -4 89 -16 111 -39 74 -209 149 -461 205 -134 29 -146 41 -146
146 0 95 -21 129 -85 138 -58 9 -92 -22 -105 -95 -13 -71 -36 -101 -91 -118
-56 -17 -269 -19 -326 -3 -37 10 -44 17 -53 49 -5 20 -10 58 -10 84 0 62 -16
94 -55 113 -41 19 -62 19 -97 -1z m1230 -459 c54 -16 122 -67 122 -91 0 -8 -9
-23 -20 -34 -54 -54 -240 15 -240 90 0 52 43 63 138 35z m-349 -763 c54 -27
76 -65 75 -125 0 -29 -4 -205 -9 -392 -5 -223 -4 -395 3 -500 11 -152 10 -162
-9 -202 -39 -81 6 -77 -839 -69 -834 8 -794 5 -829 79 -18 39 -18 53 -9 212 5
94 7 338 5 544 -6 403 -5 410 45 443 13 9 33 18 43 21 11 2 351 5 755 6 681 1
738 0 769 -17z m-1783 -1067 c41 -63 36 -191 -11 -235 -28 -27 -56 -16 -81 32
-21 41 -16 163 9 201 23 35 61 36 83 2z m-40 -360 c59 -45 104 -173 104 -299
0 -174 -78 -326 -166 -326 -28 0 -89 51 -111 93 -27 53 -44 211 -33 302 19
145 41 199 97 236 38 26 70 24 109 -6z"/>
<path d="M12334 4910 c-44 -10 -54 -18 -71 -57 -11 -27 -12 -42 -3 -69 15 -44
44 -64 96 -64 59 0 94 34 94 92 0 73 -47 113 -116 98z"/>
<path d="M12532 4905 c-45 -19 -68 -73 -52 -121 15 -45 45 -64 98 -64 34 0 48
6 67 26 35 38 35 105 0 139 -13 14 -31 25 -39 25 -8 0 -20 2 -28 5 -7 2 -28
-2 -46 -10z"/>
<path d="M11950 4815 l0 -95 63 0 c36 0 68 5 75 12 16 16 15 54 -3 71 -13 13
-13 16 0 27 20 17 19 43 -3 63 -13 12 -37 17 -75 17 l-57 0 0 -95z"/>
<path d="M12700 4814 l0 -96 66 4 c81 5 104 26 104 95 0 65 -33 93 -111 93
l-59 0 0 -96z"/>
<path d="M12325 2345 c-14 -13 -25 -36 -25 -50 0 -33 42 -75 75 -75 33 0 75
42 75 75 0 33 -42 75 -75 75 -14 0 -37 -11 -50 -25z"/>
<path d="M4462 6509 c-167 -32 -272 -152 -274 -311 -1 -161 57 -251 207 -320
43 -20 66 -23 165 -23 105 0 120 3 176 28 69 32 131 91 166 157 33 65 38 194
9 270 -58 153 -250 238 -449 199z"/>
<path d="M5935 6514 c-149 -32 -221 -80 -277 -187 -32 -60 -33 -211 -2 -278
60 -128 183 -199 350 -199 155 0 273 65 334 184 32 63 35 76 35 155 0 74 -4
94 -28 143 -31 64 -75 107 -145 142 -72 37 -194 55 -267 40z"/>
<path d="M1848 6504 c-5 -4 -8 -43 -8 -86 l0 -78 233 0 c168 0 236 3 245 12
13 13 16 75 6 103 -4 8 -21 23 -38 33 -25 13 -68 17 -231 20 -110 2 -203 0
-207 -4z"/>
<path d="M1840 5975 l0 -115 240 0 c267 0 297 5 324 59 32 61 14 125 -44 153
-30 16 -67 18 -277 18 l-243 0 0 -115z"/>
<path d="M7140 6186 l0 -326 143 0 c205 0 303 33 368 123 96 133 71 366 -48
451 -78 55 -131 68 -305 73 l-158 6 0 -327z"/>
<path d="M1840 4860 l0 -80 239 0 c263 0 251 -3 251 64 0 43 -24 73 -68 86
-20 5 -124 10 -229 10 l-193 0 0 -80z"/>
<path d="M1847 4523 c-4 -3 -7 -57 -7 -120 l0 -113 235 0 c270 0 307 7 331 66
34 81 0 145 -87 163 -54 12 -461 15 -472 4z"/>
<path d="M3318 4663 l-87 -188 176 -3 c97 -1 178 -1 180 2 5 5 -169 376 -177
376 -3 0 -45 -84 -92 -187z"/>
<path d="M8220 3205 l0 -166 203 3 c199 3 203 3 248 30 100 59 106 203 11 268
-35 24 -41 25 -249 28 l-213 3 0 -166z"/>
</g>
</svg>
