<?xml version="1.0" standalone="no"?>
<!DOCTYPE svg PUBLIC "-//W3C//DTD SVG 20010904//EN"
 "http://www.w3.org/TR/2001/REC-SVG-20010904/DTD/svg10.dtd">
<svg version="1.0" xmlns="http://www.w3.org/2000/svg"
 width="105.000000pt" height="105.000000pt" viewBox="0 0 105.000000 105.000000"
 preserveAspectRatio="xMidYMid meet">
<metadata>
Created by potrace 1.16, written by Peter Selinger 2001-2019
</metadata>
<g transform="translate(0.000000,105.000000) scale(0.060694,-0.100962)"
fill="#000000" stroke="none">
<path d="M1 715 c0 -179 4 -325 9 -325 27 0 40 34 40 107 0 66 -2 75 -20 80
-11 3 -20 9 -20 14 0 5 11 3 25 -3 24 -11 25 -15 25 -98 l0 -88 -30 -12 -30
-12 0 -189 0 -189 128 0 c70 0 122 4 117 8 -12 8 -49 64 -50 74 0 17 -17 19
-41 4 -14 -10 -28 -16 -30 -13 -6 6 81 57 96 57 7 0 43 -17 81 -37 59 -33 69
-42 69 -65 0 -24 4 -28 29 -28 17 0 33 5 37 12 5 7 2 9 -7 6 -8 -3 -19 0 -26
7 -10 11 3 24 62 65 41 28 75 53 75 56 0 3 -37 -15 -83 -40 l-82 -45 -78 45
-77 45 0 69 c0 39 -1 73 -2 78 -1 4 34 27 77 52 43 25 80 52 83 60 3 12 2 12
-6 2 -5 -7 -20 -19 -33 -26 -13 -7 -45 -24 -70 -38 l-46 -26 -71 40 -72 40 0
86 0 87 67 39 c37 22 73 39 80 39 13 0 17 10 14 35 -2 13 26 69 47 90 6 7 12
18 12 23 0 6 4 8 9 4 6 -3 8 4 6 16 -2 12 -2 19 1 16 4 -3 24 5 45 19 21 13
39 22 39 19 0 -3 9 -1 19 5 11 5 22 6 25 1 3 -5 15 -11 27 -14 29 -8 14 6 -41
36 -44 24 -45 26 -51 83 l-6 59 -1 -56 -2 -55 -74 -43 -75 -43 -45 27 c-25 15
-46 28 -46 29 0 1 14 1 30 -2 21 -3 30 0 30 10 0 22 56 77 95 94 65 27 40 34
-125 34 l-160 0 1 -325z m219 34 c0 -49 -4 -89 -9 -89 -5 0 -37 -16 -71 -35
-69 -39 -77 -41 -105 -19 -19 14 -19 15 4 12 20 -3 24 2 26 27 4 41 19 97 38
134 11 22 12 31 4 31 -8 0 -8 3 -2 8 6 4 17 15 25 25 13 17 12 21 -10 39 -15
11 1 6 38 -13 l62 -32 0 -88z"/>
<path d="M680 986 l0 -54 -67 -39 c-38 -22 -75 -43 -83 -46 -12 -4 -12 -6 -1
-6 8 -1 47 18 87 42 56 32 74 47 74 64 0 12 5 34 10 49 l11 27 144 -6 c133 -7
255 -27 281 -48 6 -5 24 -9 41 -11 18 -1 29 -6 27 -10 -5 -8 11 -12 30 -9 18
3 46 -11 40 -21 -4 -6 1 -8 12 -6 15 2 20 14 22 50 2 29 8 48 18 52 7 3 14 1
14 -5 0 -6 4 -8 8 -5 5 3 23 -8 41 -25 18 -16 38 -26 44 -23 7 4 9 4 5 -1 -4
-4 11 -23 34 -41 41 -32 43 -32 72 -17 46 23 21 2 -32 -28 l-47 -26 -75 40
c-89 48 -88 40 2 -12 l63 -36 3 -82 3 -81 -51 -31 c-28 -17 -54 -31 -58 -31
-4 0 -18 -9 -32 -20 l-25 -20 30 9 c38 11 75 28 96 42 9 7 27 9 40 6 22 -6 26
-15 37 -77 16 -94 16 -197 0 -203 -8 -3 -5 -6 5 -6 10 -1 39 11 63 25 l45 27
35 -19 c20 -11 38 -23 41 -27 3 -5 -8 -2 -25 7 -16 8 -33 12 -37 8 -5 -4 -5 0
0 8 5 8 4 12 0 7 -17 -15 -14 -36 3 -30 14 5 15 3 5 -8 -7 -7 -13 -20 -13 -29
0 -31 -42 -145 -57 -153 -12 -7 -12 -11 -1 -25 8 -10 9 -13 1 -9 -6 4 -14 3
-17 -2 -4 -5 3 -12 14 -16 11 -3 20 -11 20 -16 0 -6 -24 3 -52 20 l-53 30 -6
83 -5 83 -2 -82 -2 -82 -76 -42 -76 -42 -44 22 c-24 12 -46 26 -49 32 -4 5
-11 9 -18 9 -13 0 22 -27 68 -51 20 -11 31 -25 33 -43 l3 -26 159 0 c157 0
159 0 163 23 l4 22 2 -22 c1 -21 6 -23 51 -23 l50 0 0 310 c0 244 -3 309 -13
304 -9 -6 -9 -5 0 7 9 12 13 72 13 217 l-1 202 -524 0 -525 0 0 -54z"/>
<path d="M800 558 c-37 -50 -46 -82 -34 -116 17 -46 37 -48 77 -8 20 20 37 47
37 59 0 18 2 19 10 7 15 -24 12 -48 -11 -71 -20 -20 -25 -49 -21 -121 3 -39
19 -35 24 6 2 19 0 32 -4 30 -19 -12 -6 41 17 68 29 34 32 66 9 111 -18 36
-53 77 -66 77 -4 0 -22 -19 -38 -42z"/>
</g>
</svg>
